<svg xmlns="http://www.w3.org/2000/svg" height="400" width="300" version="1.0" viewBox="-115.2 -244.75 998.4 1468.5"><g fill="#cc0113"><path d="M0 0h.06C.05.02.02.05 0 .06zm43.44 233.39c.02-41.87-.14-83.74.08-125.61 16.15.22 32.32-.34 48.46.35 8.98-.48 17.99-.53 26.96.01 12.38-.44 24.73.11 37.11-.34 10.33-.33 20.65.84 30.97.03 11.33-.03 22.65 0 33.97.39 2.34-.03 4.67-.14 7-.37 10.66-.01 21.33-.09 32 .02 7.61.86 15.23-.65 22.85.22 6.73.13 13.46-.57 20.2.04 11-.99 22.02.6 33.01-.32 8.66.72 17.32-.47 25.97.21 6.72.55 13.43-.49 20.14.07 6.27-.76 12.54.43 18.81-.18 6.96-.17 13.94-.21 20.9.2 4.7-.18 9.42-.53 14.12-.09 7.35.6 14.7-.38 22.06-.22 3.99-.07 7.98.58 11.98.29 6.66-.67 13.32.43 19.99.09 17.97-1.01 35.96.35 53.92-.27 6.31.47 12.63.3 18.94-.04 8.05.61 16.11-.48 24.18.04 6.32.65 12.65-.56 18.97.25 9.32-.28 18.67-.61 28-.17 3.92.43 7.84-.26 11.77-.18 8.74.41 17.49-.4 26.23.28 11.63-.52 23.28-.2 34.92-.25 5.86.45 11.75.48 17.61-.16 1.3 6.41-.51 12.91.56 19.36.18 19.65.02 39.31.08 58.96-.16 10.95.38 21.92-.44 32.85-.21 4.91.57 9.79.52 14.7-6.06 1.32-12.2-.2-18.3.39-5.65.67-11.31-.45-16.96.13-9.66-.72-19.34.81-28.99-.33-8.32.74-16.66.32-24.99.41-50.36.02-100.71-.08-151.06-.04-19.65-.67-39.32-.26-58.98-.37-127.52-.19-255.04-.3-382.56-.35m31.87-113.1c-5.11 4.98-4.91 13.31-1.8 19.3-1.6.04-3.19.08-4.79.13-.04 3.88-.07 7.76-.03 11.64 2.34-.02 4.68-.03 7.03-.01.17 13.91.04 27.82.08 41.73-.23 3.17 3.31 4.13 5.32 5.76 2.76 1.75 5.51 3.5 8.31 5.17.19-17.71.03-35.43.09-53.15 10.85.11 21.74-.31 32.57.36-7 1.84-14.45-.47-21.45 1.38-2.51 1.61-3.98 4.58-4.11 7.52.2 2.25 1.31 4.28 2.08 6.37l.72-.14c.53.87 1.07 1.74 1.61 2.6-2.08 2.68-4.77 5.44-4.72 9.07-.21 2.74.84 5.33 1.74 7.86 5.05 7.13 12.43 12.01 20.11 15.89 2.12.98 4.12 2.5 6.48 2.81 1.91-.4 3.32-2.21 3.15-4.19-.98-1.44-1.86-2.93-2.71-4.44-5.59-2.7-11.37-5.93-14.38-11.63 0-1.61-.01-3.21-.02-4.81 1.06-.94 2.13-1.87 3.21-2.79 5-.95 10.16-1.33 15.09.26-3.16 2.53-8.46 1.59-10.02 6.01-.25.85-.49 1.71-.71 2.57 2.05 2.42 4.11 4.83 6.07 7.32 2.54-.15 5.22-.54 7.22-2.26 3.81-3.14 7.88-7.34 7.26-12.71.13-5.34-5.02-8.26-8.55-11.34-7.43-3.13-15.79-.2-23.45-2.43 8.91-.57 17.88-.17 26.82-.47-.01-4.09 0-8.18-.02-12.27 5.51-.05 11.05.18 16.54-.48 13.47-.18 26.95-.15 40.4.77-.58.4-1.73 1.21-2.31 1.61-3.77-.01-7.54-.12-11.3.06-2.83-.05-4.99 1.98-7.19 3.46-.13.65-.38 1.95-.51 2.6-7.4.46-14.82.05-22.22.22-2.02-.06-3.84.91-5.62 1.74-.34 1.85-1.24 3.8-.51 5.68 2.05 5.69 5.96 10.73 10.86 14.24 2.33 1.83 5.15.39 7.66-.16.73-3.11.97-6.31 1.05-9.5 1.65.07 3.31.06 4.96.27 1.49 3.09 2.15 6.61 4.37 9.33 2.37 3.42 5.93 5.67 9.4 7.83 5.12 2.21 10.78 1.84 16.21 1.53.54.69 1.6 2.08 2.13 2.77-6.35.29-12.31 2.73-17.65 6.05.27.04.81.1 1.08.14 1.85 2.94 4.04 5.66 6.14 8.43 2.41-.52 4.79-1.17 7.2-1.7 1.23-.99 2.47-1.98 3.7-2.96 1.01-.01 3.03-.03 4.04-.03-.08 1.34-.17 2.69-.27 4.04-.97.9-1.92 1.82-2.87 2.75-9.71 3.56-21.01 1.4-29.5-4.28-2.75-1.43-2.9-4.83-3.92-7.41-2.2 1.9-4.5 3.67-6.79 5.44l.06 2.48c3.89 6.46 11.06 9.52 17.35 13.07 10.07 4.54 22.66 6.48 32.35-.01 5.4-3.58 7.23-10.4 6.13-16.53-.73-1.23-1.44-2.46-2.17-3.69.02-.5.05-1.51.07-2.02-3.37-3.44-6.44-7.16-9.72-10.69.84-1.06 1.67-2.13 2.5-3.2.38-1.07.78-2.12 1.2-3.17.77-3.88-.77-7.47-3.09-10.5-2.76-1.2-5.89-2.7-8.85-1.16-4.3 1.43-5.46 6.29-6.02 10.26-4.15.08-8.28-.56-11.96-2.54-.29-3.13.18-6.25 1.04-9.26.58-.36 1.73-1.09 2.3-1.46 7.54-.04 15.07.01 22.61-.02.02-4.68.02-9.35.01-14.02 6.49-.01 12.97-.02 19.46.01.02 3 .01 6 .01 9-2.98-.05-5.82.81-8.35 2.36-1.5 5.6 1.05 10.98 4.42 15.32 6.08 8.63 13.35 16.35 20.89 23.71 3.18-1.61 6.33-3.27 9.52-4.87-8.66-4.88-14.89-12.72-21.35-20.05 1.5-1.33 2.99-2.69 4.37-4.16 1.1-.26 2.24-.41 3.28.18 2.93 1.35 6.07 2.09 9.24 2.66 4.13 10.14 11.21 18.62 18.02 27.05.31-.07.95-.21 1.26-.28 1.22-.88 2.45-1.75 3.7-2.6-.34-2.25-.81-4.47-1.44-6.65a73.176 73.176 0 01-7.17-9.97c-2.51-4.34-4.68-9.59-2.47-14.51 6.56-.8 13.18-.09 19.75-.79.15 9.12.11 18.23.06 27.35 4.37 2.97 8.91 5.71 13.15 8.87.82-3.92.56-7.92.59-11.88-.02-13.58 0-27.15.03-40.72 2.68-.02 5.35-.01 8.04.03-.02 14.62-.08 29.23.02 43.85 4.49 2.83 9.02 5.63 13.21 8.91 1.33-17.76-.33-35.6.73-53.37 11.09-.1 22.14.87 33.24.57.01 2.75.01 5.5.02 8.26-7.58-.01-15.17-.12-22.75.02-2.28-.12-3.95 1.57-5.51 2.96-.61 6.18 3.64 11.22 7.37 15.64 2.23 2.14 4.84 3.92 8.01 4.24.68-.31 2.05-.93 2.73-1.24 1.81-2.85 1.43-6.34 1.72-9.55 2.78 0 5.56.01 8.34-.01.03 1.08.06 2.15.1 3.23.32 6.96-.86 14.09.75 20.92 4.44 2.55 8.59 5.59 12.94 8.29.13-17.59.02-35.18.06-52.77 3.14-.05 6.29-.06 9.44-.04.04-3.75.05-7.5.05-11.24-73.29 0-146.59.01-219.88-.01-5.97-.57-11.97-.31-17.96-.52-2.43-3.09-5.28-5.81-8.12-8.52-5.57-4.68-11.4-9.1-17.93-12.37-4.75-2.07-9.78-3.51-15-3.53-4.98-.05-10.28 1.25-13.68 5.13m320.18-3.89c.55 1.83 1.09 3.68 1.66 5.51.73 2.98 1.58 5.93 2.45 8.87 2.12-.62 4.24-1.24 6.33-1.96 2.02-.46 4.05-.93 6.08-1.34 3.44 3.96 6.59 8.16 10.1 12.07-.62.03-1.85.07-2.47.1-8.94.48-17.88.39-26.82.65.04 3.36.03 6.72.02 10.08.92.37 1.85.74 2.79 1.1l3.01-.2c.59 6.71-1.78 14.45 2.78 20.19 3.3 4.81 7.68 8.78 12.7 11.73 3.81.97 7.76.72 11.63.25.55 3.51.39 7.06-.03 10.58.26.47.76 1.4 1.02 1.87 4.4 2.56 8.66 5.37 12.9 8.18.22-17.55 0-35.12.09-52.68 10.97-.1 21.9-.81 32.88-.58.13 1.8.21 3.61.26 5.42a247.28 247.28 0 01-14.76 4.87c-2.96 1.34-5.79 2.93-8.57 4.59-2.19 2.62-2.83 6.01-2.9 9.33 1.59 8.31 7.8 14.9 15.41 18.23-1.19 2.69-2.49 5.34-3.86 7.94-1.74 3.28-3.45 6.56-5.17 9.85-.59 1.16-1.17 2.32-1.74 3.49 4.93-.27 9.83-.97 14.77-1.28 1.66-4.2 3.49-8.33 5.6-12.32.69 1.72 1.39 3.44 2.09 5.17.9 2.07 1.75 4.17 2.54 6.29 4.94.66 9.88 1.43 14.88 1.26a97 97 0 01-2.16-3.65c-2.41-5.02-4.99-9.95-7.46-14.94 5.06-.89 9.67-3.2 14.41-5.06-2.52-4.88-5.47-9.51-7.98-14.38-1.92 2.22-3.7 4.86-6.64 5.79-7.29 2.9-16.29 3.5-22.96-1.24-.54-2.35.03-4.44 2.22-5.64 3.37-1.31 6.77-2.53 10.21-3.63 4.18-1.27 8.3-2.76 12.26-4.62.48-.33 1.43-1 1.9-1.33.38-.45 1.14-1.35 1.51-1.8.12-3.92.1-7.84.09-11.77 3.34-.01 6.69-.01 10.04.01.07 6.85-.13 13.72.38 20.57-.65 7.62-.18 15.28-.43 22.92 1.8 1.4 3.69 2.68 5.63 3.9.97.73 1.95 1.46 2.93 2.21 1.72.89 3.46 1.76 5.23 2.58.15-17.4-.03-34.79.1-52.19 2.94-.02 5.89 0 8.84.12.11 4.44-.7 8.88-.26 13.32.85 10.29-1.32 20.65.46 30.89 4.45 2.66 8.79 5.5 13.02 8.51.22-17.61.01-35.22.09-52.83 1.21 0 2.42 0 3.64.01 5.92-.06 11.81-.93 17.74-.52 7.82.78 15.68.36 23.52.55-.04 1.28-.09 2.56-.12 3.84-5.3-.06-10.9.06-15.39 3.28-1.63-1.3-3.31-2.54-4.99-3.77-6.19-2.32-14.06-.17-17.76 5.43-2.49 3.83-1.97 8.58-1.56 12.9 4.58 10.88 11.92 20.61 20.94 28.21.95.07 1.91.14 2.87.23.77-1.21 2.6-2.25 1.92-3.91-1.37-5.92-6.84-9.4-9.36-14.71-2.5-4.31-3.16-9.36-2.78-14.25.57-.52 1.69-1.56 2.26-2.08l4.16-.15c.83 4.15.56 8.39.66 12.59 4.41 2.63 8.83 5.24 13.23 7.89.42-6.36-.55-12.82.75-19.1 1.27-.36 2.55-.74 3.82-1.14.34.23 1.01.69 1.34.92-.04 9.2.05 18.41 0 27.61 4.38 3 8.94 5.72 13.22 8.87.43-17.57-.3-35.15.65-52.71 4.55-.01 9.1-.01 13.66-.05 1.11.03 2.23.07 3.36.11.4 1.86.82 3.72 1.18 5.6-.41.55-1.22 1.65-1.63 2.2-3.68 1.17-7.52 1.6-11.36 1.44-.95 8.73 3.87 16.92 10.11 22.63 6.46 5.64 15.96 6.38 23.67 2.98 0 2.99.01 6 .03 9 4.45 2.89 8.89 5.82 13.37 8.68.03-3.05.09-6.1.05-9.16l.49-.6c-.05-6.04-.89-12.06-.24-18.09.78-8.23-.91-16.49.19-24.7 2.42-.04 4.84-.06 7.27-.12l-.11.15c.81-.03 2.42-.08 3.22-.11.08 3.32.07 6.66.61 9.95-1.98.71-3.93 1.46-5.86 2.28-.11 2.99-.96 6.41.99 9.02 3.47 4.87 8.64 9.75 15.11 9.07 2.18-1.95 2.44-4.86 2.94-7.56 2.61.13 5.24.19 7.86.28-.03 7.08-.25 14.17.16 21.24 4.55 2.58 8.85 5.57 13.14 8.57.86-17.59.5-35.19.62-52.8 3.13-.04 6.27-.07 9.4-.02 0-3.73-.02-7.45.04-11.17-35.51-.24-71.03-.01-106.55-.11-6.47-.56-12.96-.31-19.44-.45-3.42-3.35-6.61-6.96-10.29-10.03-8.92-7.33-19.32-14.49-31.34-14.47-6.88-.27-14.41 3.24-16.61 10.15-.53 4.77-.85 9.88 1.26 14.34-1.44.02-2.88.03-4.3.04-4.11-6.96-9.02-13.49-14.73-19.21-1.41-1.26-2.88-2.95-4.93-2.91-4.9-.21-9.76.69-14.64 1.04 1.02 4.83 2.42 9.57 3.69 14.34 4.35-.76 8.45-2.76 12.93-2.74 2.47 3.18 4.95 6.36 7.65 9.37-1.45.04-2.89.08-4.32.15-6-.01-12-.07-17.99.04-16.12 1.04-32.26-.23-48.39-.07-4.21-7.34-9.23-14.18-14.88-20.46-1.89-1.89-4.05-3.48-6.45-4.66-4.88 1.1-9.93.71-14.8 1.83z"/><path d="M83.45 130.92c4.11-4.16 10.33-4.1 15.69-3.16 7.17 1.45 12.96 6.42 17.54 11.88-10.79.41-21.55.09-32.34-.01-1.13-2.78-1.24-5.77-.89-8.71zm445.54-2.29c6.49-2.24 13.98-1.79 19.99 1.62 4.27 2.33 7.86 5.68 11.08 9.3-10.81.41-21.61.2-32.42.14-1.13-2.49-1.51-5.2-1.29-7.91.89-1.04 1.77-2.09 2.64-3.15zm-292.62 22.71c7.19.08 14.4.22 21.57-.5 5.88.45 11.78.59 17.69.57.01 1.43.03 2.85.05 4.27-6.63.15-13.27-.04-19.89.1-3.18.07-5.96 1.74-8.66 3.23-1.05 1.47-2.1 2.93-3.14 4.41-2.76.35-5.53.5-8.3.38.85-4.1.83-8.3.68-12.46zm382.79.04c3.74-.04 7.48 0 11.23.07-.04 6.6-.04 13.21-.01 19.81-3.92 1.89-7.73 4.69-12.29 4.41-3.18.22-6.1-1.13-8.81-2.59 1.54-.71 3.15-1.41 4.71-2.14 1.34-.98 2.68-1.96 4.03-2.95.35-.47 1.06-1.4 1.41-1.86 2.18-4.71 1.68-10.07-.27-14.75zm-207.02 7.59c-.4-2.53-.2-5.08.12-7.59 4.51-.04 9.01-.03 13.52-.01.01 5.91.18 11.82-.12 17.73-4.06 2.03-8.54 2.96-13.07 2.25-.52-4.11-.36-8.25-.45-12.38zm255.63-7.55c2.82-.06 5.64-.04 8.47.05.05 3.75.03 7.52-.65 11.22l-1.24-.96c-2.04.22-4.08.42-6.1.6-.48-3.62-.49-7.27-.48-10.91zM246.62 394.36c22.25-.14 44.51-.16 66.76.01-.07 10.41-.07 20.82.03 31.23-4.31.11-8.62.13-12.93.05-.16.57-.48 1.71-.65 2.28.66 9.24.31 18.51-.11 27.75 14.99.54 29.98.39 44.98.41.25-9.96.08-19.91.11-29.87-4.31-.84-8.71-.46-13.07-.54-.03-10.41-.04-20.81.02-31.21.52-.04 1.58-.13 2.11-.17 20.03-.06 40.05-.02 60.08-.03 1.49.01 2.98.01 4.48.03-.06 10.45-.12 20.9.02 31.36-4.4 0-8.8.04-13.2-.01-.75 30.61-.22 61.24-.36 91.86 4.49.03 8.99.01 13.49.04.01 11.02-.02 22.04.01 33.05-22.22.05-44.43-.03-66.64-.09-.05-10.99-.03-21.99-.01-32.98 4.54 0 9.08.06 13.62-.09.01-5.83-.93-11.63-.47-17.46.35-3.51.41-7.04.43-10.57-10.45-.15-20.89-.9-31.33-.41-4.75.39-9.52.17-14.27.34 1.01 7.88-.1 15.79.06 23.69-.01 1.47-.01 2.95-.01 4.43 4.53.1 9.06.07 13.59.1-.02 11.01-.01 22.01-.03 33.01-7.14-.18-14.24.79-21.38.55-9.98 0-19.96.01-29.95.01-5.1-.5-10.22-.53-15.35-.54.03-11.01.01-22.03 0-33.05 4.37-.01 8.75-.02 13.12.06.68-18.52.13-37.07.31-55.6.15-11.9-.5-23.81.05-35.7-4.5-.48-9.01-.65-13.53-.76.1-10.39.09-20.79.02-31.18zm165.78.15c29.21-.03 58.42-.01 87.63-.01 7.32-.66 14.38 1.71 21.07 4.4 1.39.62 2.8 1.21 4.22 1.8 8.75 4.54 16.56 11.71 19.87 21.2 2.6 7.34 3.59 15.3 2.85 23.05-.64 6.15-3.32 11.79-5.86 17.34l-.33.26c-3.84 6.4-8.84 12.03-14.69 16.66-5.01 3.33-10.44 5.95-16.07 8.03-7.56 1.99-15.39 1-23.07 1.9-7.49.15-14.98.14-22.46.34.06 9.39.04 18.78-.01 28.18 4.36.08 8.72.05 13.09.07 1.37 6.75-.27 13.54.3 20.32-.21 4.23-.43 8.49.26 12.7-17.72.49-35.46-.24-53.17.44-4.55.02-9.09-.01-13.64.02-.08-11.17-.1-22.35.02-33.52 4.4.01 8.8.03 13.21 0 .05-30.48.08-60.97-.02-91.45-4.43-.05-8.88.09-13.28-.45.1-10.43-.09-20.86.08-31.28m53.15 31.71c.06 10.47.09 20.95-.02 31.42 10.5.26 20.99.04 31.49.15 2.2.24 4.16-.79 6.06-1.75 2.93-2.48 5.6-5.3 7.31-8.78.42-4.81.46-9.72-1.05-14.36-2.35-2.2-4.79-4.29-7.42-6.13-1.96-.4-3.96-.67-5.96-.62-10.14.06-20.28-.03-30.41.07z"/></g><g fill="#010269"><path d="M.06 0H768v979H0V.06C.02.05.05.02.06 0M17.4 17.13c.02 314.76-.03 629.52.03 944.27 244.45 0 488.9-.02 733.35.01.2-99.13.03-198.27.09-297.41-.04-215.62.07-431.25-.06-646.87-244.47 0-488.94-.02-733.41 0z"/><path d="M327.07 313.93c39.8-8.34 81.4-7.98 121.01 1.26 39.3 9.03 76.43 26.98 108.2 51.76 28.4 22.28 52.55 50.01 70.48 81.36 27.05 47.03 39.84 102.21 35.99 156.33-46.24-2.38-93.19 5.2-135.92 23.2-35.17 14.97-66.99 38.28-90.46 68.58-26.16 33.32-41.74 73.95-49.02 115.43-2.45 13.07-3.74 26.31-5.24 39.5-1.08-23.58-5.23-47-11.5-69.74-10.73-38.86-30.2-75.71-58.64-104.52-25.89-26.52-58.75-45.7-93.77-57.44-23.62-8.03-48.29-12.76-73.13-14.87-12.81-.82-25.69-1.55-38.51-.52-1.02-21.79-.33-43.73 3.52-65.23 8.44-49.46 30.68-96.46 63.57-134.35 39.36-45.96 94.18-78.4 153.42-90.75M296.2 334.9c-48.07 16.76-91.02 47.8-122.16 88.05-28.36 36.17-46.76 79.86-53.49 125.29 15.21.92 30.41 2.47 45.41 5.21 38.32 6.7 75.69 20.62 107.74 42.89 33 22.82 60.22 53.85 78.73 89.44 17.3 32.99 26.72 69.76 29.57 106.81 7.76-51.49 24.08-102.87 55.26-145.16 22.57-31.03 53.35-55.9 88.27-71.75 38.56-17.87 81.25-25.02 123.49-26.08-4.68-33.9-16.05-66.83-33.19-96.44-18.29-31.69-43.25-59.48-72.66-81.24-35.97-26.62-78.77-44.03-123.18-49.72-16.55-2.45-33.32-2.36-50-1.92-25.13 1.26-50.07 6.26-73.79 14.62z"/><path d="M619.93 615.95c13.89-1.36 27.84-1.45 41.77-1.09-.22 9.09-2.15 18.05-3.8 26.97-13.3 67.42-53.05 129.05-108.6 169.42-14.49 10.79-30.2 19.86-46.47 27.67-34.59 16.05-72.44 25.11-110.58 26 1.83-41.58 9.45-83.5 27.44-121.28 16-33.98 41-63.8 72.24-84.74 37.74-25.68 82.84-38.91 128-42.95m-117.78 83.92c-19.5 10.65-36.67 25.36-50.55 42.68-25.28 31.67-39.78 70.58-47.89 109.94 37.28-2.61 74.01-13.1 106.91-30.85 56.55-30.1 101.5-81.31 123.94-141.33-44.65-6.51-92.34-2.51-132.41 19.56zm-394.76-85.22c42.9-1.68 86.34 5.45 125.99 22.08 34.71 14.72 66.1 37.96 88.68 68.31 23.82 31.42 37.88 69.3 44.89 107.85 3.09 17.15 4.87 34.51 5.64 51.9-41.59-1.76-82.78-12.95-119.43-32.73-32.03-17.08-60.58-40.62-83.66-68.62-34.8-42.02-56.66-94.51-62.11-148.79m27.56 65.37c19.71 53.75 57.87 100.34 106.04 131.15 34.95 22.4 75.23 36.58 116.58 40.55-1.99-26.57-7.18-53.35-19.12-77.35-9.08-18.44-22.67-34.36-38.45-47.4-13.94-11.36-28.25-22.5-44.26-30.83-18.17-9.68-38.26-15.74-58.75-17.77-20.65-2.55-41.48-.75-62.04 1.65z"/></g></svg>